<svg xmlns="http://www.w3.org/2000/svg" width="900" height="748" viewBox="0 0 900 748" font-family="system-ui, -apple-system, 'Segoe UI', sans-serif">
<rect width="900" height="748" fill="#fcfcfb"/>
<text x="62" y="28" font-size="17" font-weight="700" fill="#0b0b0b">Weight — daily weigh-ins &#38; 7-day trailing average</text>
<text x="62" y="47" font-size="12" fill="#52514e">Morning on-protocol reads, lb · Apr 21 – Jul 31, 2026 (Day 1 – Day 102)</text>
<line x1="62" y1="444.0" x2="870" y2="444.0" stroke="#e1e0d9" stroke-width="1"/>
<text x="54" y="448.0" font-size="11" fill="#898781" text-anchor="end" font-variant-numeric="tabular-nums">230</text>
<line x1="62" y1="364.0" x2="870" y2="364.0" stroke="#e1e0d9" stroke-width="1"/>
<text x="54" y="368.0" font-size="11" fill="#898781" text-anchor="end" font-variant-numeric="tabular-nums">234</text>
<line x1="62" y1="284.0" x2="870" y2="284.0" stroke="#e1e0d9" stroke-width="1"/>
<text x="54" y="288.0" font-size="11" fill="#898781" text-anchor="end" font-variant-numeric="tabular-nums">238</text>
<line x1="62" y1="204.0" x2="870" y2="204.0" stroke="#e1e0d9" stroke-width="1"/>
<text x="54" y="208.0" font-size="11" fill="#898781" text-anchor="end" font-variant-numeric="tabular-nums">242</text>
<line x1="62" y1="124.0" x2="870" y2="124.0" stroke="#e1e0d9" stroke-width="1"/>
<text x="54" y="128.0" font-size="11" fill="#898781" text-anchor="end" font-variant-numeric="tabular-nums">246</text>
<line x1="62.0" y1="464" x2="62.0" y2="469" stroke="#c3c2b7" stroke-width="1"/>
<text x="62.0" y="484" font-size="11" fill="#898781" text-anchor="middle">Apr 21</text>
<line x1="142.0" y1="464" x2="142.0" y2="469" stroke="#c3c2b7" stroke-width="1"/>
<text x="142.0" y="484" font-size="11" fill="#898781" text-anchor="middle">May</text>
<line x1="390.0" y1="464" x2="390.0" y2="469" stroke="#c3c2b7" stroke-width="1"/>
<text x="390.0" y="484" font-size="11" fill="#898781" text-anchor="middle">Jun</text>
<line x1="630.0" y1="464" x2="630.0" y2="469" stroke="#c3c2b7" stroke-width="1"/>
<text x="630.0" y="484" font-size="11" fill="#898781" text-anchor="middle">Jul</text>
<line x1="870.0" y1="464" x2="870.0" y2="469" stroke="#c3c2b7" stroke-width="1"/>
<text x="870.0" y="484" font-size="11" fill="#898781" text-anchor="middle">Jul 31</text>
<line x1="62" y1="464" x2="870" y2="464" stroke="#c3c2b7" stroke-width="1"/>
<line x1="62" y1="444.0" x2="870" y2="444.0" stroke="#898781" stroke-width="1" stroke-dasharray="5 4"/>
<text x="68" y="438.0" font-size="11" fill="#898781">next milestone 230</text>
<text x="76.0" y="68.6" font-size="11" fill="#52514e">start: 250.0 (home scale)</text>
<text x="76.0" y="82.6" font-size="11" fill="#52514e">first Withings 247.5</text>
<rect x="310.0" y="64" width="24.0" height="400" fill="#e1e0d9" opacity="0.35"/>
<text x="322.0" y="80" font-size="11" fill="#898781" text-anchor="middle">camping</text>
<rect x="606.0" y="64" width="72.0" height="400" fill="#e1e0d9" opacity="0.35"/>
<text x="642.0" y="80" font-size="11" fill="#898781" text-anchor="middle">Florida trip</text>
<circle cx="70.0" cy="94.6" r="2.6" fill="#6da7ec"/>
<circle cx="78.0" cy="121.1" r="2.6" fill="#6da7ec"/>
<circle cx="86.0" cy="151.9" r="2.6" fill="#6da7ec"/>
<circle cx="94.0" cy="134.3" r="2.6" fill="#6da7ec"/>
<circle cx="102.0" cy="154.1" r="2.6" fill="#6da7ec"/>
<circle cx="110.0" cy="156.4" r="2.6" fill="#6da7ec"/>
<circle cx="118.0" cy="149.7" r="2.6" fill="#6da7ec"/>
<circle cx="126.0" cy="206.0" r="2.6" fill="#6da7ec"/>
<circle cx="134.0" cy="207.1" r="2.6" fill="#6da7ec"/>
<circle cx="142.0" cy="197.1" r="2.6" fill="#6da7ec"/>
<circle cx="150.0" cy="191.6" r="2.6" fill="#6da7ec"/>
<circle cx="158.0" cy="176.2" r="2.6" fill="#6da7ec"/>
<circle cx="166.0" cy="176.2" r="2.6" fill="#6da7ec"/>
<circle cx="174.0" cy="215.9" r="2.6" fill="#6da7ec"/>
<circle cx="182.0" cy="189.4" r="2.6" fill="#6da7ec"/>
<circle cx="190.0" cy="243.4" r="2.6" fill="#6da7ec"/>
<circle cx="198.0" cy="271.0" r="2.6" fill="#6da7ec"/>
<circle cx="206.0" cy="251.2" r="2.6" fill="#6da7ec"/>
<circle cx="214.0" cy="204.9" r="2.6" fill="#6da7ec"/>
<circle cx="222.0" cy="219.2" r="2.6" fill="#6da7ec"/>
<circle cx="230.0" cy="237.9" r="2.6" fill="#6da7ec"/>
<circle cx="238.0" cy="240.1" r="2.6" fill="#6da7ec"/>
<circle cx="246.0" cy="248.9" r="2.6" fill="#6da7ec"/>
<circle cx="254.0" cy="280.9" r="2.6" fill="#6da7ec"/>
<circle cx="262.0" cy="260.0" r="2.6" fill="#6da7ec"/>
<circle cx="270.0" cy="260.0" r="2.6" fill="#6da7ec"/>
<circle cx="278.0" cy="240.1" r="2.6" fill="#6da7ec"/>
<circle cx="286.0" cy="263.3" r="2.6" fill="#6da7ec"/>
<circle cx="294.0" cy="286.4" r="2.6" fill="#6da7ec"/>
<circle cx="302.0" cy="280.9" r="2.6" fill="#6da7ec"/>
<circle cx="310.0" cy="291.9" r="2.6" fill="#6da7ec"/>
<circle cx="350.0" cy="257.8" r="2.6" fill="#6da7ec"/>
<circle cx="358.0" cy="310.7" r="2.6" fill="#6da7ec"/>
<circle cx="382.0" cy="266.6" r="2.6" fill="#6da7ec"/>
<circle cx="390.0" cy="222.5" r="2.6" fill="#6da7ec"/>
<circle cx="398.0" cy="280.9" r="2.6" fill="#6da7ec"/>
<circle cx="414.0" cy="310.7" r="2.6" fill="#6da7ec"/>
<circle cx="422.0" cy="295.2" r="2.6" fill="#6da7ec"/>
<circle cx="446.0" cy="244.5" r="2.6" fill="#6da7ec"/>
<circle cx="454.0" cy="247.8" r="2.6" fill="#6da7ec"/>
<circle cx="462.0" cy="288.6" r="2.6" fill="#6da7ec"/>
<circle cx="470.0" cy="316.2" r="2.6" fill="#6da7ec"/>
<circle cx="478.0" cy="320.6" r="2.6" fill="#6da7ec"/>
<circle cx="486.0" cy="266.6" r="2.6" fill="#6da7ec"/>
<circle cx="494.0" cy="284.2" r="2.6" fill="#6da7ec"/>
<circle cx="502.0" cy="246.7" r="2.6" fill="#6da7ec"/>
<circle cx="510.0" cy="308.5" r="2.6" fill="#6da7ec"/>
<circle cx="518.0" cy="332.7" r="2.6" fill="#6da7ec"/>
<circle cx="526.0" cy="338.2" r="2.6" fill="#6da7ec"/>
<circle cx="534.0" cy="359.2" r="2.6" fill="#6da7ec"/>
<circle cx="542.0" cy="334.9" r="2.6" fill="#6da7ec"/>
<circle cx="550.0" cy="312.9" r="2.6" fill="#6da7ec"/>
<circle cx="558.0" cy="312.9" r="2.6" fill="#6da7ec"/>
<circle cx="574.0" cy="353.7" r="2.6" fill="#6da7ec"/>
<circle cx="582.0" cy="358.1" r="2.6" fill="#6da7ec"/>
<circle cx="590.0" cy="362.5" r="2.6" fill="#6da7ec"/>
<circle cx="598.0" cy="330.5" r="2.6" fill="#6da7ec"/>
<circle cx="694.0" cy="268.8" r="2.6" fill="#6da7ec"/>
<circle cx="702.0" cy="307.4" r="2.6" fill="#6da7ec"/>
<circle cx="710.0" cy="301.9" r="2.6" fill="#6da7ec"/>
<circle cx="718.0" cy="310.7" r="2.6" fill="#6da7ec"/>
<circle cx="726.0" cy="291.9" r="2.6" fill="#6da7ec"/>
<circle cx="734.0" cy="299.7" r="2.6" fill="#6da7ec"/>
<circle cx="742.0" cy="312.9" r="2.6" fill="#6da7ec"/>
<circle cx="758.0" cy="360.3" r="2.6" fill="#6da7ec"/>
<circle cx="766.0" cy="323.9" r="2.6" fill="#6da7ec"/>
<circle cx="782.0" cy="320.6" r="2.6" fill="#6da7ec"/>
<circle cx="790.0" cy="310.7" r="2.6" fill="#6da7ec"/>
<circle cx="798.0" cy="362.5" r="2.6" fill="#6da7ec"/>
<circle cx="806.0" cy="391.1" r="2.6" fill="#6da7ec"/>
<circle cx="814.0" cy="352.6" r="2.6" fill="#6da7ec"/>
<circle cx="846.0" cy="383.4" r="2.6" fill="#6da7ec"/>
<circle cx="854.0" cy="401.1" r="2.6" fill="#6da7ec"/>
<circle cx="862.0" cy="393.3" r="2.6" fill="#6da7ec"/>
<circle cx="870.0" cy="424.2" r="2.6" fill="#6da7ec"/>
<polyline points="70.0,94.6 78.0,107.8 86.0,122.5 94.0,125.5 102.0,131.2 110.0,135.4 118.0,137.5 126.0,153.4 134.0,165.6 142.0,172.1 150.0,180.3 158.0,183.4 166.0,186.3 174.0,195.7 182.0,193.4 190.0,198.6 198.0,209.1 206.0,217.6 214.0,221.7 222.0,227.8 230.0,231.0 238.0,238.2 246.0,239.0 254.0,240.4 262.0,241.7 270.0,249.6 278.0,252.6 286.0,256.2 294.0,262.8 302.0,267.4 310.0,268.9 350.0,276.9 358.0,286.8 382.0,278.3 390.0,264.4 398.0,267.7 414.0,270.2 422.0,275.2 446.0,282.8 454.0,274.6 462.0,277.4 470.0,278.5 478.0,283.6 486.0,280.7 494.0,281.2 502.0,281.5 510.0,290.2 518.0,296.5 526.0,299.7 534.0,305.2 542.0,314.9 550.0,319.0 558.0,328.5 574.0,335.3 582.0,338.6 590.0,339.2 598.0,338.4 694.0,268.8 702.0,288.1 710.0,292.7 718.0,297.2 726.0,296.1 734.0,296.7 742.0,299.0 758.0,312.9 766.0,316.6 782.0,323.5 790.0,325.7 798.0,335.6 806.0,344.8 814.0,343.6 846.0,372.4 854.0,382.0 862.0,382.6 870.0,400.5" fill="none" stroke="#2a78d6" stroke-width="2.5" stroke-linejoin="round" stroke-linecap="round"/>
<circle cx="870.0" cy="424.2" r="4.5" fill="#2a78d6" stroke="#fcfcfb" stroke-width="2"/>
<text x="862.0" y="442.2" font-size="12" font-weight="700" fill="#0b0b0b" text-anchor="end">231.0 — new low</text>
<text x="862.0" y="457.2" font-size="11" fill="#006300" text-anchor="end">−19.0 lb from start</text>
<line x1="670" y1="76" x2="696" y2="76" stroke="#2a78d6" stroke-width="2.5" stroke-linecap="round"/>
<text x="703" y="80" font-size="11" fill="#52514e" font-weight="600">7-day trailing avg</text>
<circle cx="683" cy="95" r="2.6" fill="#6da7ec"/>
<text x="703" y="99" font-size="11" fill="#52514e">daily weigh-ins</text>
<text x="62" y="516" font-size="15" font-weight="700" fill="#0b0b0b">Waist — navel landmark, AM fasted (in)</text>
<text x="62" y="532" font-size="11" fill="#52514e">Calibrated protocol from Jun 1 (pre-calibration reads excluded)</text>
<line x1="62" y1="651.1" x2="870" y2="651.1" stroke="#e1e0d9" stroke-width="1"/>
<text x="54" y="655.1" font-size="11" fill="#898781" text-anchor="end" font-variant-numeric="tabular-nums">46.0</text>
<line x1="62" y1="582.9" x2="870" y2="582.9" stroke="#e1e0d9" stroke-width="1"/>
<text x="54" y="586.9" font-size="11" fill="#898781" text-anchor="end" font-variant-numeric="tabular-nums">47.0</text>
<line x1="62" y1="692" x2="870" y2="692" stroke="#c3c2b7" stroke-width="1"/>
<line x1="390.0" y1="692" x2="390.0" y2="697" stroke="#c3c2b7" stroke-width="1"/>
<text x="390.0" y="712" font-size="11" fill="#898781" text-anchor="middle">Jun</text>
<line x1="630.0" y1="692" x2="630.0" y2="697" stroke="#c3c2b7" stroke-width="1"/>
<text x="630.0" y="712" font-size="11" fill="#898781" text-anchor="middle">Jul</text>
<line x1="870.0" y1="692" x2="870.0" y2="697" stroke="#c3c2b7" stroke-width="1"/>
<text x="870.0" y="712" font-size="11" fill="#898781" text-anchor="middle">Jul 31</text>
<polyline points="390.0,565.9 398.0,608.5 414.0,608.5 462.0,617.0 518.0,644.3 710.0,617.0 742.0,634.0 806.0,651.1 870.0,668.1" fill="none" stroke="#2a78d6" stroke-width="2.5" stroke-linejoin="round" stroke-linecap="round"/>
<circle cx="390.0" cy="565.9" r="3.2" fill="#2a78d6" stroke="#fcfcfb" stroke-width="1.5"/>
<circle cx="398.0" cy="608.5" r="3.2" fill="#2a78d6" stroke="#fcfcfb" stroke-width="1.5"/>
<circle cx="414.0" cy="608.5" r="3.2" fill="#2a78d6" stroke="#fcfcfb" stroke-width="1.5"/>
<circle cx="462.0" cy="617.0" r="3.2" fill="#2a78d6" stroke="#fcfcfb" stroke-width="1.5"/>
<circle cx="518.0" cy="644.3" r="3.2" fill="#2a78d6" stroke="#fcfcfb" stroke-width="1.5"/>
<circle cx="710.0" cy="617.0" r="3.2" fill="#2a78d6" stroke="#fcfcfb" stroke-width="1.5"/>
<circle cx="742.0" cy="634.0" r="3.2" fill="#2a78d6" stroke="#fcfcfb" stroke-width="1.5"/>
<circle cx="806.0" cy="651.1" r="3.2" fill="#2a78d6" stroke="#fcfcfb" stroke-width="1.5"/>
<circle cx="870.0" cy="668.1" r="3.2" fill="#2a78d6" stroke="#fcfcfb" stroke-width="1.5"/>
<text x="862.0" y="672.1" font-size="12" font-weight="700" fill="#0b0b0b" text-anchor="end">45.75 — new low (−1.5&#8221;)</text>
</svg>